<!-- Generator: Adobe Illustrator 24.2.1, SVG Export Plug-In  -->
<svg version="1.1" xmlns="http://www.w3.org/2000/svg" xmlns:xlink="http://www.w3.org/1999/xlink" x="0px" y="0px" width="424px"
	 height="741.7px" viewBox="0 0 424 741.7" style="overflow:visible;enable-background:new 0 0 424 741.7;" xml:space="preserve">
<style type="text/css">
	.st0{fill:#FAA73F;}
	.st1{fill:#DCDDDE;}
	.st2{fill:#FFFFFF;}
	.st3{fill:#BE1E2D;}
	.st4{fill:#414042;}
	.st5{fill:#F7941D;}
	.st6{fill:#F15A29;}
</style>
<defs>
</defs>
<g id="white_1_">
	<g>
		<path class="st0" d="M244.8,619.7l51.2,107h54.7c4.1,0,7.5,3.4,7.5,7.5c0,4.1-3.4,7.5-7.5,7.5h-86c-4.1,0-7.5-3.4-7.5-7.5
			c0-4.1,3.4-7.5,7.5-7.5h14.7l-48.1-100.5L244.8,619.7z"/>
		<path class="st0" d="M136.1,726.7h19.1V622.9h15v103.8h51.9c4.1,0,7.5,3.4,7.5,7.5c0,4.1-3.4,7.5-7.5,7.5h-86
			c-4.1,0-7.5-3.4-7.5-7.5C128.6,730.1,131.9,726.7,136.1,726.7z"/>
	</g>
	<path class="st1" d="M322,503.4c0,0.3,0,0.5,0,0.8c0,70-37.6,126.7-84,126.7c-46.4,0-84-56.7-84-126.7c0-0.3,0-0.5,0-0.8H322z"/>
	<polygon class="st1" points="266,91 359.1,155.2 415.8,390.7 197.7,390.7 	"/>
	<path class="st2" d="M111.5,293.8h175.4c74.1,0,134.2,60.1,134.2,134.2s-60.1,134.2-134.2,134.2h-49.5
		c-13.9,40.8-42.2,68.7-74.7,68.7c-36.1,0-66.9-34.4-78.8-82.6C34.3,525,0,474.6,0,416.2l0-15.5l0-106.9l0-109.1
		C60.8,184.7,110.2,233.4,111.5,293.8z"/>
	<g>
		<path class="st3" d="M288.8,24.4c3.2,0,6.2,0.7,9,2C299,11.6,311.4,0,326.5,0c15.1,0,27.6,11.6,28.8,26.5c2.7-1.3,5.7-2,9-2
			c11.6,0,21,9.4,21,21c0,11.6-9.4,21-21,21c-9.4,0-66.1,0-75.5,0c-11.6,0-21-9.4-21-21C267.8,33.8,277.2,24.4,288.8,24.4z"/>
		<circle class="st2" cx="327.2" cy="104.9" r="62.7"/>
		
			<ellipse transform="matrix(0.9735 -0.2287 0.2287 0.9735 -11.5934 83.8173)" class="st4" cx="355.8" cy="91.9" rx="10.8" ry="10.8"/>
		<polygon class="st5" points="389,94.3 424,111.7 389,129.1 379.6,111.7 		"/>
		<polygon class="st6" points="424,111.7 389,129.1 379.6,111.7 		"/>
		<path class="st3" d="M361.7,144.8l17.9-33.1l17.9,33.1c1.4,2.8,2.3,5.9,2.3,9.3c0,11.2-9,20.2-20.2,20.2c-11.2,0-20.2-9-20.2-20.2
			C359.4,150.7,360.2,147.6,361.7,144.8z"/>
	</g>
	<g>
		<path class="st4" d="M46.7,293.8c0,108.2,87.8,196,196,196v-196H46.7z"/>
		<path class="st1" d="M242.7,293.8c54.1,0,98,43.9,98,98c0,54.1-43.9,98-98,98c-54.1,0-98-43.9-98-98v-98H242.7z"/>
	</g>
</g>
</svg>
